<?xml version="1.0" encoding="UTF-8"?> <svg xmlns="http://www.w3.org/2000/svg" xmlns:xlink="http://www.w3.org/1999/xlink" width="30px" height="23px" viewBox="0 0 30 23" version="1.1"><title>delivery_icn</title><g id="Landing-Page" stroke="none" stroke-width="1" fill="none" fill-rule="evenodd"><g id="Landing_page_f@2x" transform="translate(-123.000000, -1678.000000)" fill="#FFFFFF" fill-rule="nonzero"><g id="Features" transform="translate(-3.000000, 1270.000000)"><g id="#3" transform="translate(126.000000, 405.000000)"><g id="delivery_icn" transform="translate(0.000000, 3.000000)"><path d="M29.8421053,10.2947368 L26.3368421,3.44210526 C26.0842105,2.96842105 25.6105263,2.65263158 25.0736842,2.65263158 L20.4315789,2.65263158 L20.4315789,1.48421053 C20.4315789,0.663157895 19.7684211,-2.91696492e-14 18.9473684,-2.91696492e-14 L1.48421053,-2.91696492e-14 C0.663157895,-2.91696492e-14 0,0.663157895 0,1.48421053 L0,16.8947368 C0,17.7157895 0.663157895,18.3789474 1.48421053,18.3789474 L2.96842105,18.3789474 C3.15789474,20.4947368 4.89473684,22.1684211 7.04210526,22.1684211 C9.18947368,22.1684211 10.9578947,20.4947368 11.1157895,18.3789474 L18.7578947,18.3789474 C18.9473684,20.4947368 20.6842105,22.1684211 22.8315789,22.1684211 C24.9789474,22.1684211 26.7473684,20.4947368 26.9052632,18.3789474 L28.5789474,18.3789474 C29.3684211,18.3789474 30,17.7473684 30,16.9578947 L30,10.9578947 C30,10.7368421 29.9368421,10.5157895 29.8421053,10.2947368 Z M20.4315789,5.52631579 L24.1578947,5.52631579 L26.4,9.88421053 L20.4315789,9.88421053 L20.4315789,5.52631579 Z M7.04210526,20.0210526 C5.96842105,20.0210526 5.08421053,19.1368421 5.08421053,18.0631579 C5.08421053,16.9894737 5.96842105,16.1052632 7.04210526,16.1052632 C8.11578947,16.1052632 9,16.9894737 9,18.0631579 C9,19.1368421 8.11578947,20.0210526 7.04210526,20.0210526 Z M22.8631579,20.0210526 C21.7894737,20.0210526 20.9052632,19.1368421 20.9052632,18.0631579 C20.9052632,16.9894737 21.7894737,16.1052632 22.8631579,16.1052632 C23.9368421,16.1052632 24.8210526,16.9894737 24.8210526,18.0631579 C24.8210526,19.1368421 23.9368421,20.0210526 22.8631579,20.0210526 Z" id="Shape"></path></g></g></g></g></g></svg> 