<?xml version="1.0" encoding="UTF-8"?> <svg xmlns="http://www.w3.org/2000/svg" xmlns:xlink="http://www.w3.org/1999/xlink" width="23px" height="41px" viewBox="0 0 23 41" version="1.1"><title>ipad</title><g id="Repair" stroke="none" stroke-width="1" fill="none" fill-rule="evenodd"><g id="Models_repair@2x" transform="translate(-718.000000, -661.000000)" fill="#878787" fill-rule="nonzero"><g id="Select-your-device" transform="translate(0.000000, 450.000000)"><g id="Subnav" transform="translate(340.000000, 194.000000)"><g id="ipod" transform="translate(349.000000, 17.000000)"><g id="Feature" transform="translate(0.314286, 0.371429)"><g id="ipad" transform="translate(29.000000, 0.000000)"><path d="M2.44444444,0 C1.09022222,0 0,1.11500094 0,2.5 L0,37.5 C0,38.8849994 1.09022222,40 2.44444444,40 L19.5555556,40 C20.9097778,40 22,38.8849994 22,37.5 L22,2.5 C22,1.11500094 20.9097778,0 19.5555556,0 L2.44444444,0 Z M1.83333333,6.25 L20.1666667,6.25 L20.1666667,33.75 L1.83333333,33.75 L1.83333333,6.25 Z M11,35 C11.8912304,35 12.6041667,35.7486563 12.6041667,36.6601563 C12.6041667,37.5716563 11.8912304,38.3007813 11,38.3007813 C10.1087696,38.3007813 9.39583333,37.5716563 9.39583333,36.6601563 C9.39583333,35.7486563 10.1087696,35 11,35 Z" id="Shape"></path></g></g></g></g></g></g></g></svg> 