<?xml version="1.0" encoding="UTF-8"?> <svg xmlns="http://www.w3.org/2000/svg" xmlns:xlink="http://www.w3.org/1999/xlink" width="28px" height="30px" viewBox="0 0 28 30" version="1.1"><title>warranty_icn</title><g id="Landing-Page" stroke="none" stroke-width="1" fill="none" fill-rule="evenodd"><g id="Landing_page_f@2x" transform="translate(-976.000000, -1497.000000)"><g id="Features" transform="translate(-3.000000, 1270.000000)"><g id="#2-copy" transform="translate(978.000000, 227.000000)"><g id="warranty_icn" transform="translate(1.000000, 0.000000)"><path d="M12.798169,29.6773344 C5.73023669,26.7700547 0.914480614,20.1154894 0.362231486,12.4929594 L0.00598148643,7.75858445 C-0.0599835636,6.87535884 0.424391436,6.04260644 1.22473149,5.66327195 L12.6903565,0.207021946 C13.2717576,-0.0690073152 13.9464553,-0.0690073152 14.5278565,0.207021946 L26.035669,5.66327195 C26.836009,6.04260644 27.320384,6.87535884 27.254419,7.75858445 L26.898169,12.4929594 C26.3434081,20.118811 21.5215924,26.7742237 14.448169,29.6773344 C13.9243294,29.8937547 13.3360711,29.8937547 12.8122315,29.6773344 L12.798169,29.6773344 Z" id="Path" fill="#FFFFFF"></path><path d="M13.6278565,25.3554594 L13.6278565,25.3554594 L13.6278565,4.51483445 L4.38879399,8.90702195 L4.63254399,12.1882719 C5.04943942,17.8740357 8.48282838,22.8997728 13.6278565,25.3554594 L13.6278565,25.3554594 Z" id="Path" fill="#000000"></path></g></g></g></g></g></svg> 