<svg class="web-icon" width="56" viewBox="0 0 49 31" preserveAspectRatio="xMidYMid meet" xmlns="http://www.w3.org/2000/svg" xmlns:xlink="http://www.w3.org/1999/xlink"><g class="icon-truck"><g stroke="none" stroke-width="1" fill="none" fill-rule="evenodd"><g transform="translate(-939.000000, -336.000000)" fill="#878787" fill-rule="nonzero"><g transform="translate(909.000000, 312.000000)"><g transform="translate(30.000000, 24.000000)"><path d="M24.9375,0 L5.5125,0 C2.61300506,0 0.2625,2.35050506 0.2625,5.25 L0.2625,24.5175 C0.2625,25.097399 0.732601013,25.5675 1.3125,25.5675 L5.67,25.5675 C6.05476173,28.3752369 8.45352253,30.4676989 11.2875,30.4676989 C14.1214775,30.4676989 16.5202383,28.3752369 16.905,25.5675 L31.92,25.5675 C32.3047617,28.3752369 34.7035225,30.4676989 37.5375,30.4676989 C40.3714775,30.4676989 42.7702383,28.3752369 43.155,25.5675 L46.9875,25.5675 C47.567399,25.5675 48.0375,25.097399 48.0375,24.5175 L48.0375,17.22 C48.0375,14.6104546 45.9220454,12.495 43.3125,12.495 C42.391001,12.5003664 41.534172,12.0221362 41.055,11.235 L38.43,6.825 C38.2537395,6.49720132 37.909646,6.29479337 37.5375,6.3 L30.1875,6.3 L30.1875,5.25 C30.1875,2.35050506 27.8369949,0 24.9375,0 Z M11.2875,28.35 C9.8175911,28.3498456 8.49349615,27.4614632 7.9360177,26.1013713 C7.37853926,24.7412794 7.69820952,23.1791457 8.74515091,22.1473774 C9.79209231,21.1156091 11.358726,20.8187765 12.7105351,21.3960499 C14.0623441,21.9733232 14.931303,23.3102455 14.91,24.78 C14.8812996,26.7601191 13.267827,28.350208 11.2875,28.35 Z M28.0875,23.4675 L16.8525,23.4675 C16.2357911,20.8935136 13.9343351,19.0783346 11.2875,19.0783346 C8.64066489,19.0783346 6.33920894,20.8935136 5.7225,23.4675 L2.3625,23.4675 L2.3625,5.25 C2.3625,3.51030304 3.77280304,2.1 5.5125,2.1 L24.9375,2.1 C26.677197,2.1 28.0875,3.51030304 28.0875,5.25 L28.0875,23.4675 Z M37.5375,28.35 C36.0675911,28.3498456 34.7434961,27.4614632 34.1860177,26.1013713 C33.6285393,24.7412794 33.9482095,23.1791457 34.9951509,22.1473774 C36.0420923,21.1156091 37.608726,20.8187765 38.9605351,21.3960499 C40.3123441,21.9733232 41.181303,23.3102455 41.16,24.78 C41.1312996,26.7601191 39.517827,28.350208 37.5375,28.35 Z M36.96,8.4 L39.2175,12.285 C40.0903275,13.7122286 41.6395592,14.5861541 43.3125,14.595 C44.7622475,14.595 45.9375,15.7702525 45.9375,17.22 L45.9375,23.4675 L43.1025,23.4675 C42.4857911,20.8935136 40.1843351,19.0783346 37.5375,19.0783346 C34.8906649,19.0783346 32.5892089,20.8935136 31.9725,23.4675 L30.1875,23.4675 L30.1875,8.4 L36.96,8.4 Z"></path><path d="M23.8875,5.9325 L15.2775,5.9325 C14.697601,5.9325 14.2275,6.40260101 14.2275,6.9825 C14.2275,7.56239899 14.697601,8.0325 15.2775,8.0325 L23.8875,8.0325 C24.467399,8.0325 24.9375,7.56239899 24.9375,6.9825 C24.9375,6.40260101 24.467399,5.9325 23.8875,5.9325 Z"></path><path d="M23.8875,11.4975 L7.875,11.4975 C7.29510101,11.4975 6.825,11.967601 6.825,12.5475 C6.825,13.127399 7.29510101,13.5975 7.875,13.5975 L23.8875,13.5975 C24.467399,13.5975 24.9375,13.127399 24.9375,12.5475 C24.9375,11.967601 24.467399,11.4975 23.8875,11.4975 Z"></path><path d="M23.8875,17.115 L19.0575,17.115 C18.477601,17.115 18.0075,17.585101 18.0075,18.165 C18.0075,18.744899 18.477601,19.215 19.0575,19.215 L23.8875,19.215 C24.467399,19.215 24.9375,18.744899 24.9375,18.165 C24.9375,17.585101 24.467399,17.115 23.8875,17.115 Z"></path></g></g></g></g></g></svg>