<?xml version="1.0" encoding="UTF-8"?> <svg xmlns="http://www.w3.org/2000/svg" xmlns:xlink="http://www.w3.org/1999/xlink" width="23px" height="30px" viewBox="0 0 23 41" version="1.1"><title>watch</title><g id="Repair" stroke="none" stroke-width="1" fill="none" fill-rule="evenodd"><g id="Models_repair@2x" transform="translate(-1048.000000, -662.000000)" fill="#878787" fill-rule="nonzero" stroke="#878787"><g id="Select-your-device" transform="translate(0.000000, 450.000000)"><g id="Subnav" transform="translate(340.000000, 194.000000)"><g id="Watch" transform="translate(679.000000, 19.000000)"><g id="Feature" transform="translate(0.314286, 0.371429)"><g id="watch" transform="translate(30.000000, 0.000000)"><path d="M19.1304348,12.6325889 C19.1304348,12.6325889 19.1304348,11.1597067 19.1304348,11.1597067 C19.1304348,10.2468454 18.8686957,9.33126994 18.3234783,8.6083996 C18.04,8.23294129 17.7052174,7.90090948 17.4156522,7.52907004 C17.0956522,7.11742298 16.7991304,6.68496738 16.5278261,6.23622685 C16.0808696,5.49526213 15.8182609,4.73710776 15.7278261,3.86405409 C15.6556522,3.16923004 15.6817391,2.4753107 15.68,1.77958192 C15.68,1.65111185 15.6834783,1.51721347 15.6591304,1.39055283 C15.5547826,0.862197038 15.1826087,0.560020951 14.6504348,0.388124375 C13.7582609,0.101328508 10.8591304,0 9.36347826,0 C7.86782609,0 5.39565217,0.102233227 4.50347826,0.389029094 C3.97130435,0.560020951 3.60086957,0.896576354 3.49652174,1.42493215 C3.39652174,1.91167087 3.61913043,4.29017666 2.80695652,5.72867959 C2.5226087,6.23713157 1.33565217,8.14427884 1.33565217,8.14427884 C0.559130435,8.86262559 0,9.93924099 0,11.1597067 L0,26.841198 C0,28.105995 0.32173913,28.8578163 1.10695652,29.9253845 C1.50956522,30.4645969 2.06173913,31.0589972 2.06347826,31.0608066 C2.34,31.3584591 2.6,31.7872958 2.88434783,32.2957478 C3.69652174,33.7351555 3.37217391,36.1227084 3.47217391,36.6094472 C3.57652174,37.137803 3.94869565,37.439979 4.48086957,37.6118756 C5.37304348,37.8986715 8.35217391,38 9.84782609,38 C11.3434783,38 13.8165217,37.8986715 14.7086957,37.6118756 C15.2408696,37.4408838 15.6113043,37.1043284 15.7156522,36.5768773 C15.8156522,36.0901386 15.5930435,33.7116328 16.4052174,32.2731299 C16.6895652,31.7646779 17.8495652,29.8575306 17.8495652,29.8575306 C18.6252174,29.1373744 19.1304348,28.0616637 19.1304348,26.841198 L19.1304348,17.156183 L20,17.156183 L20,12.6325889 L19.1304348,12.6325889 Z M3.57652174,6.18465787 C4.27826087,4.94066949 4.31043478,3.19003857 4.32956522,2.16680158 C4.33391304,1.91528975 4.33304348,1.69996667 4.35043478,1.59230513 C4.38086957,1.43940765 4.45391304,1.31998476 4.78521739,1.21413266 C5.45652174,0.997904862 7.84608696,0.905623542 9.40173913,0.905623542 C10.9573913,0.905623542 13.6956522,0.987952955 14.366087,1.20418075 C14.7504348,1.32812723 14.78,1.45388315 14.8008696,1.56244941 C14.8191304,1.67011095 14.8173913,1.85467359 14.8217391,2.10709014 C14.8408696,3.13575544 14.8730435,4.93071758 15.5765217,6.1765154 C15.78,6.53930765 15.993913,6.89033856 16.2391304,7.20427599 C16.1782609,7.20065711 2.93217391,7.19794296 2.90608696,7.20427599 C3.16869565,6.88219609 3.37130435,6.55287843 3.57652174,6.18465787 Z M15.6356522,31.8153421 C14.933913,33.0593305 14.9017391,34.8099614 14.8826087,35.8331984 C14.8782609,36.0847103 14.8791304,36.3000333 14.8617391,36.4076949 C14.8313043,36.5605924 14.7582609,36.6800152 14.4269565,36.7858673 C13.7556522,37.0020951 11.366087,37.0943765 9.81043478,37.0943765 C8.25478261,37.0943765 5.43565217,37.012047 4.76521739,36.7958192 C4.38086957,36.6718728 4.35130435,36.5461169 4.33043478,36.4375506 C4.31217391,36.3298891 4.31391304,36.1453264 4.30956522,35.8929099 C4.29043478,34.8642446 4.25826087,33.0692824 3.55478261,31.8234846 C3.35217391,31.4615971 3.12956522,31.0399981 2.88521739,30.7260607 C2.93565217,30.7296795 15.6521739,30.7269654 15.6521739,30.7269654 C15.7713043,30.7269654 16.2530435,30.7342031 16.2808696,30.7269654 C16.0191304,31.0490453 15.8408696,31.4471216 15.6356522,31.8153421 Z M18.2608696,26.841198 C18.2608696,28.4651683 17.1469565,29.8222466 15.706087,29.8222466 L3.53217391,29.8222466 C2.09217391,29.8222466 0.869565217,28.4651683 0.869565217,26.841198 L0.869565217,11.1597067 C0.869565217,9.53573639 2.09217391,8.21937051 3.53217391,8.21937051 L15.706087,8.21937051 C17.1469565,8.21937051 18.2608696,9.53573639 18.2608696,11.1597067 L18.2608696,26.841198 L18.2608696,26.841198 Z" id="Shape"></path></g></g></g></g></g></g></g></svg> 