<?xml version="1.0" encoding="UTF-8"?> <svg xmlns="http://www.w3.org/2000/svg" xmlns:xlink="http://www.w3.org/1999/xlink" width="30px" height="30px" viewBox="0 0 30 30" version="1.1"><title>repair_icn</title><g id="Landing-Page" stroke="none" stroke-width="1" fill="none" fill-rule="evenodd"><g id="Landing_page_f@2x" transform="translate(-556.000000, -1497.000000)" fill="#FFFFFF" fill-rule="nonzero"><g id="Features" transform="translate(-3.000000, 1270.000000)"><g id="#2" transform="translate(558.000000, 227.000000)"><g id="repair_icn" transform="translate(1.000000, 0.000000)"><path d="M0.84375,23.1875 C0.1875,23.84375 0.1875,24.90625 0.84375,25.5625 L4.4375,29.15625 C5.09375,29.8125 6.15625,29.8125 6.8125,29.15625 L15.03125,20.96875 L9.03125,14.96875 L0.84375,23.1875 Z M11.8125,20.40625 C12.09375,20.65625 12.09375,21.09375 11.8125,21.34375 L6.03125,27.125 C5.90625,27.25 5.71875,27.3125 5.5625,27.3125 C5.40625,27.3125 5.21875,27.25 5.09375,27.125 C4.8125,26.84375 4.8125,26.4375 5.09375,26.1875 L10.875,20.40625 C11.15625,20.125 11.5625,20.125 11.8125,20.40625 Z M9.59375,18.1875 C9.875,18.46875 9.875,18.875 9.59375,19.125 L3.8125,24.90625 C3.6875,25.03125 3.5,25.09375 3.34375,25.09375 C3.1875,25.09375 3,25.03125 2.875,24.90625 C2.59375,24.65625 2.59375,24.21875 2.875,23.96875 L8.6875,18.15625 C8.90625,17.90625 9.34375,17.90625 9.59375,18.1875 Z" id="Shape"></path><path d="M25.78125,5.875 L27.5,5.5 C27.59375,5.46875 27.65625,5.4375 27.71875,5.34375 L29.65625,2.21875 C29.75,2.09375 29.71875,1.90625 29.59375,1.8125 L28.1875,0.40625 C28.0625,0.28125 27.90625,0.28125 27.78125,0.34375 L24.65625,2.28125 C24.5625,2.34375 24.53125,2.40625 24.5,2.5 L24.125,4.21875 L17.15625,11.21875 L18.8125,12.875 L25.78125,5.875 Z" id="Path"></path><path d="M28.375,20.6875 C26.96875,19.28125 24.875,18.90625 23.09375,19.53125 L10.46875,6.875 C11.125,5.09375 10.75,3.03125 9.3125,1.59375 C7.90625,0.1875 5.84375,-0.1875 4.0625,0.46875 L6.40625,2.8125 C7.40625,3.8125 7.40625,5.40625 6.40625,6.40625 C5.40625,7.40625 3.8125,7.40625 2.8125,6.40625 L0.46875,4.0625 C-0.1875,5.84375 0.1875,7.90625 1.625,9.34375 C3.03125,10.75 5.125,11.125 6.90625,10.5 L19.53125,23.125 C18.875,24.90625 19.25,26.96875 20.6875,28.40625 C22.09375,29.8125 24.1875,30.1875 25.96875,29.5625 L23.625,27.21875 C22.625,26.21875 22.625,24.625 23.625,23.625 L23.625,23.625 C24.625,22.625 26.21875,22.625 27.21875,23.625 L29.5625,25.96875 C30.1875,24.15625 29.8125,22.09375 28.375,20.6875 Z" id="Path"></path></g></g></g></g></g></svg> 