<?xml version="1.0" encoding="UTF-8"?> <svg xmlns="http://www.w3.org/2000/svg" xmlns:xlink="http://www.w3.org/1999/xlink" width="30px" height="30px" viewBox="0 0 30 30" version="1.1"><title>corporate_icn</title><g id="Landing-Page" stroke="none" stroke-width="1" fill="none" fill-rule="evenodd"><g id="Landing_page_f@2x" transform="translate(-123.000000, -1498.000000)" fill="#FFFFFF" fill-rule="nonzero"><g id="Features" transform="translate(-3.000000, 1270.000000)"><g id="corporate_icn" transform="translate(126.000000, 228.000000)"><path d="M12.7846154,16.646044 C9.9689011,16.646044 7.64241758,13.593956 7.2689011,9.63131868 L6.50307692,9.63131868 C6.92868132,14.1441758 9.57824176,17.6208791 12.7846154,17.6208791 C15.990989,17.6208791 18.6408791,14.1441758 19.0664835,9.63131868 L18.300989,9.63131868 C17.9268132,13.593956 15.6003297,16.646044 12.7846154,16.646044 Z" id="Path"></path><path d="M17.2193407,28.143956 C16.6542857,28.143956 16.1228571,27.9240659 15.7223077,27.5245055 C14.8978022,26.7 14.8978022,25.3582418 15.7223077,24.5337363 L21.9942857,18.2617582 C20.9215385,17.5028571 19.6678022,16.982967 18.3059341,16.7937363 C18.2917582,16.7917582 18.2765934,16.7901099 18.2617582,16.7874725 C18.1443956,16.7726374 18.026044,16.7584615 17.9073626,16.7475824 C17.907033,16.7597802 17.9034066,16.771978 17.9030769,16.7835165 C17.9014286,16.8184615 17.8954945,16.8520879 17.8912088,16.8876923 C17.8691209,17.0848352 17.8104396,17.277033 17.7181319,17.460989 C17.098022,19.0223077 15.091978,21.9807692 13.9104396,23.6597802 L13.6671429,20.1708791 C14.011978,19.9935165 14.3086813,19.7010989 14.4989011,19.3612088 C14.6357143,19.1169231 14.7194505,18.8502198 14.7194505,18.5785714 C14.7194505,18.5785714 13.8379121,18.9695604 12.9385714,18.9695604 C12.8871429,18.9695604 12.836044,18.9675824 12.7846154,18.9649451 C12.7331868,18.9675824 12.6820879,18.9695604 12.6306593,18.9695604 C11.730989,18.9695604 10.8497802,18.5785714 10.8497802,18.5785714 C10.8497802,18.8502198 10.9335165,19.1169231 11.0703297,19.3612088 C11.2608791,19.7010989 11.5572527,19.9935165 11.9020879,20.1708791 L11.6587912,23.6597802 C10.4772527,21.9807692 8.47120879,19.0226374 7.85142857,17.460989 C7.75912088,17.2767033 7.70010989,17.0845055 7.67835165,16.8876923 C7.67406593,16.8520879 7.6678022,16.8184615 7.66615385,16.7835165 C7.66582418,16.771978 7.66252747,16.7597802 7.6621978,16.7475824 C7.54285714,16.7584615 7.42483516,16.7726374 7.30747253,16.7874725 C7.29263736,16.7901099 7.27747253,16.7917582 7.26296703,16.7937363 C3.1589011,17.3643956 0,20.8879121 0,25.1498901 C0,29.8104396 3.77868132,29.7995607 8.43923077,29.7995607 L12.7846154,29.7995607 L17.1306593,29.7995607 C21.7908791,29.7995607 25.5695604,29.8104396 25.5695604,25.1498901 C25.5695604,23.8414286 25.2695604,22.6041758 24.7381319,21.4991209 L18.7143956,27.5238462 C18.3154945,27.9237363 17.7843956,28.143956 17.2193407,28.143956 Z" id="Path"></path><path d="M6.20373626,8.69241758 L6.41769231,8.69241758 L7.57153846,8.69241758 L8.0156044,8.69241758 L17.5542857,8.69241758 L17.9983516,8.69241758 L19.1521978,8.69241758 L19.3651648,8.69241758 C19.8781319,8.69241758 20.2935165,8.27703297 20.2935165,7.7643956 C20.2935165,7.25175824 19.8778022,6.83604396 19.3651648,6.83604396 L19.1123077,6.83604396 C19.1123077,4.37010989 17.7003297,2.23483516 15.6415385,1.19043956 L15.4532967,2.26021978 L15.1173626,4.16373626 C15.0761538,4.39912088 14.8714286,4.56494505 14.6406593,4.56494505 C14.6126374,4.56494505 14.583956,4.56230769 14.5556044,4.55736264 C14.2912088,4.51087912 14.1154945,4.25967033 14.1623077,3.99527473 L14.5318681,1.89725275 L14.7606593,0.598681319 C14.5358242,0.239340659 14.1375824,0 13.6823077,0 L11.8865934,0 C11.4316484,0 11.0337363,0.239340659 10.8085714,0.598681319 L11.0373626,1.89725275 L11.4072527,3.99527473 C11.4537363,4.25934066 11.278022,4.51054945 11.0136264,4.55736264 C10.9852747,4.56263736 10.9572527,4.56494505 10.9292308,4.56494505 C10.6978022,4.56494505 10.4930769,4.39945055 10.4515385,4.16373626 L10.1159341,2.26054945 L9.92736264,1.1910989 C7.86824176,2.23483516 6.45692308,4.37010989 6.45692308,6.83604396 L6.20340659,6.83604396 C5.69076923,6.83604396 5.27571429,7.25175824 5.27571429,7.7643956 C5.27571429,8.27703297 5.6910989,8.69241758 6.20373626,8.69241758 Z" id="Path"></path><path d="M27.3797802,18.1941758 L26.0264835,18.1941758 L25.050989,17.220989 L25.0506593,15.8643956 L26.6835165,14.2318681 L26.0264835,13.5754945 C25.1775824,13.6087912 24.3379121,13.9496703 23.6901099,14.5987912 C22.6862637,15.6006593 22.4205495,17.0597802 22.8873626,18.3056044 L16.1904396,25.0018681 C15.6243956,25.5675824 15.6220879,26.4883516 16.1904396,27.0563736 C16.4746154,27.3392308 16.8471429,27.4816484 17.2193407,27.4816484 C17.5908791,27.4816484 17.9620879,27.3398901 18.2449451,27.0563736 L24.9408791,20.3587912 C25.3368132,20.5068132 25.7538462,20.580989 26.1708791,20.580989 C27.0665934,20.580989 27.9623077,20.2401099 28.647033,19.5573626 C29.2964835,18.9065934 29.6373626,18.0692308 29.6703297,17.219011 L29.0132967,16.5616484 L27.3797802,18.1941758 Z M17.7138462,26.5242857 C17.576044,26.6617582 17.3967033,26.73 17.2173626,26.73 C17.0376923,26.73 16.8586813,26.6617582 16.7208791,26.5249451 C16.4492308,26.2513187 16.4475824,25.8062637 16.7202198,25.5313187 C16.8576923,25.3945055 17.0367033,25.3262637 17.216044,25.3262637 C17.396044,25.3262637 17.576044,25.3951648 17.7128571,25.5336264 C17.9878022,25.8069231 17.9874725,26.2513187 17.7138462,26.5242857 Z" id="Shape"></path></g></g></g></g></svg> 