<?xml version="1.0" encoding="UTF-8"?> <svg xmlns="http://www.w3.org/2000/svg" xmlns:xlink="http://www.w3.org/1999/xlink" width="44px" height="54px" viewBox="0 0 44 54" version="1.1"><title>iphone_icn</title><g id="Repair" stroke="none" stroke-width="1" fill="none" fill-rule="evenodd"><g id="Models_repair@2x" transform="translate(-359.000000, -650.000000)" fill="#878787" fill-rule="nonzero" stroke="#878787"><g id="Select-your-device" transform="translate(0.000000, 450.000000)"><g id="Subnav" transform="translate(340.000000, 194.000000)"><g id="iPhone" transform="translate(0.000000, 7.000000)"><g id="Feature" transform="translate(0.314286, 0.371429)"><g id="iphone_icn" transform="translate(20.000000, 0.000000)"><path d="M37.5833333,0 L19.3611111,0 C17.4741382,0 15.9444444,1.48913985 15.9444444,3.32608696 L15.9444444,47.673913 C15.9444444,49.5108601 17.4741382,51 19.3611111,51 L37.5833333,51 C39.4703062,51 41,49.5108601 41,47.673913 L41,3.32608696 C41,1.48913985 39.4703062,0 37.5833333,0 Z M31.1258333,1.275 C31.3334004,1.275 31.5016667,1.43880538 31.5016667,1.64086957 C31.5016667,1.84293375 31.3334004,2.00673913 31.1258333,2.00673913 C30.9182663,2.00673913 30.75,1.84293375 30.75,1.64086957 C30.75,1.43880538 30.9182663,1.275 31.1258333,1.275 Z M27.6180556,1.36369565 L29.8958333,1.36369565 C30.0530811,1.36369565 30.1805556,1.48779064 30.1805556,1.64086957 C30.1805556,1.79394849 30.0530811,1.91804348 29.8958333,1.91804348 L27.6180556,1.91804348 C27.4608078,1.91804348 27.3333333,1.79394849 27.3333333,1.64086957 C27.3333333,1.48779064 27.4608078,1.36369565 27.6180556,1.36369565 Z M39.8611111,47.673913 C39.8611111,48.8985444 38.8413153,49.8913043 37.5833333,49.8913043 L19.3611111,49.8913043 C18.1031292,49.8913043 17.0833333,48.8985444 17.0833333,47.673913 L17.0833333,3.32608696 C17.0833333,2.10145555 18.1031292,1.10869565 19.3611111,1.10869565 L22.2083333,1.10869565 C22.5228288,1.10869565 22.7777778,1.35688563 22.7777778,1.66304348 L22.7777778,2.2173913 C22.7777778,2.82970701 23.2876757,3.32608696 23.9166667,3.32608696 L33.0277778,3.32608696 C33.6567687,3.32608696 34.1666667,2.82970701 34.1666667,2.2173913 L34.1666667,1.66304348 C34.1666667,1.35688563 34.4216156,1.10869565 34.7361111,1.10869565 L37.5833333,1.10869565 C38.8413153,1.10869565 39.8611111,2.10145555 39.8611111,3.32608696 L39.8611111,47.673913 Z M3.63305556,49.8913043 C2.25556534,49.8913043 1.13888889,48.8042323 1.13888889,47.4632609 L1.13888889,7.97152174 C1.13888889,6.63055035 2.25556534,5.54347826 3.63305556,5.54347826 L5.69444444,5.54347826 C6.00893993,5.54347826 6.26388889,5.79166824 6.26388889,6.09782609 L6.26388889,6.65217391 C6.26388889,7.26448961 6.77378681,7.76086957 7.40277778,7.76086957 L14.8055556,7.76086957 L14.8055556,4.43478261 L3.63305556,4.43478261 C1.62916993,4.44086927 0.00625241886,6.02076139 0,7.97152174 L0,47.4632609 C0.00625241886,49.4140212 1.62916993,50.9939133 3.63305556,51 L16.3772222,51 C16.0021542,50.6830676 15.6828484,50.3085608 15.4319444,49.8913043 L3.63305556,49.8913043 Z M14.0311111,5.70978261 C14.2386781,5.70978261 14.4069444,5.87358799 14.4069444,6.07565217 C14.4069444,6.27771636 14.2386781,6.44152174 14.0311111,6.44152174 C13.8235441,6.44152174 13.6552778,6.27771636 13.6552778,6.07565217 C13.6552311,5.97666569 13.6963872,5.88188487 13.7693524,5.81294321 C13.8423176,5.74400156 13.9408645,5.70678301 14.0425,5.70978261 L14.0311111,5.70978261 Z M10.5233333,5.79847826 L12.8011111,5.79847826 C12.9583589,5.79847826 13.0858333,5.92257325 13.0858333,6.07565217 C13.0858333,6.2287311 12.9583589,6.35282609 12.8011111,6.35282609 L10.5233333,6.35282609 C10.3660856,6.35282609 10.2386111,6.2287311 10.2386111,6.07565217 C10.2386111,5.92257325 10.3660856,5.79847826 10.5233333,5.79847826 Z" id="Shape"></path></g></g></g></g></g></g></g></svg> 