<?xml version="1.0" encoding="UTF-8"?> <svg xmlns="http://www.w3.org/2000/svg" xmlns:xlink="http://www.w3.org/1999/xlink" width="66px" height="40px" viewBox="0 0 66 38" version="1.1"><title>macbook</title><g id="Repair" stroke="none" stroke-width="1" fill="none" fill-rule="evenodd"><g id="Models_repair@2x" transform="translate(-867.000000, -665.000000)" fill="#878787" fill-rule="nonzero" stroke="#878787" stroke-width="0.4"><g id="Select-your-device" transform="translate(0.000000, 450.000000)"><g id="Subnav" transform="translate(340.000000, 194.000000)"><g id="Macbook" transform="translate(520.000000, 22.000000)"><g id="Feature" transform="translate(0.314286, 0.371429)"><g id="macbook" transform="translate(8.000000, 0.000000)"><path d="M58.102,31.9003014 L58.102,1.65030143 C58.1109904,1.21191476 57.9415619,0.788672457 57.6325492,0.477585866 C57.3235365,0.166499274 56.901437,-0.00575644305 56.463,0.000146885124 L7.337,0.000146885124 C6.898563,-0.00575644305 6.47646345,0.166499274 6.16745077,0.477585866 C5.85843809,0.788672457 5.6890096,1.21191476 5.698,1.65030143 L5.698,31.9003014 L0,31.9003014 L0,33.4733014 C0.704,34.5733014 4.873,35.2003014 6.38,35.2003014 L57.42,35.2003014 C58.927,35.2003014 63.096,34.6063014 63.8,33.4733014 L63.8,31.9003014 L58.102,31.9003014 Z M56.65,31.9003014 L7.216,31.9003014 L7.216,2.54130143 L56.65,2.54130143 L56.65,31.9003014 Z" id="Shape"></path></g></g></g></g></g></g></g></svg> 