<?xml version="1.0" encoding="UTF-8"?> <svg xmlns="http://www.w3.org/2000/svg" xmlns:xlink="http://www.w3.org/1999/xlink" width="25px" height="25px" viewBox="0 0 25 25" version="1.1"><title>calendar_icn</title><g id="Landing-Page" stroke="none" stroke-width="1" fill="none" fill-rule="evenodd"><g id="Landing_page_f@2x" transform="translate(-977.000000, -1677.000000)" fill="#FFFFFF" fill-rule="nonzero"><g id="Features" transform="translate(-3.000000, 1270.000000)"><g id="calendar_icn" transform="translate(980.000000, 407.000000)"><path d="M23.5,1.85546875 L21.0449219,1.85546875 L21.0449219,5.359375 C21.0449219,6.50537109 20.1660156,7.421875 19.0625,7.421875 L18.4375,7.421875 C17.3339844,7.421875 16.4550781,6.50585938 16.4550781,5.359375 L16.4550781,1.85546875 L8.93554688,1.85546875 L8.93554688,5.359375 C8.93554688,6.50537109 8.04003906,7.421875 6.9375,7.421875 L6.3125,7.421875 C5.20996094,7.421875 4.296875,6.50585938 4.296875,5.359375 L4.296875,1.85546875 L1.5,1.85546875 C0.674804688,1.85546875 0,2.57568359 0,3.43310547 L0,23.440918 C0,24.2983398 0.674804688,25 1.5,25 L23.5,25 C24.3251953,25 25,24.2983398 25,23.440918 L25,3.43310547 C25,2.57568359 24.3251953,1.85546875 23.5,1.85546875 Z M7.8125,20.9106445 C7.8125,21.2275071 7.55563212,21.484375 7.23876953,21.484375 L3.99169922,21.484375 C3.67483663,21.484375 3.41796875,21.2275071 3.41796875,20.9106445 L3.41796875,18.347168 C3.41796875,18.0303054 3.67483663,17.7734375 3.99169922,17.7734375 L7.23876953,17.7734375 C7.55563212,17.7734375 7.8125,18.0303054 7.8125,18.347168 L7.8125,20.9106445 Z M7.8125,14.7094727 C7.8125,15.0263352 7.55563212,15.2832031 7.23876953,15.2832031 L3.99169922,15.2832031 C3.67483663,15.2832031 3.41796875,15.0263352 3.41796875,14.7094727 L3.41796875,12.1459961 C3.41796875,11.8291335 3.67483663,11.5722656 3.99169922,11.5722656 L7.23876953,11.5722656 C7.55563212,11.5722656 7.8125,11.8291335 7.8125,12.1459961 L7.8125,14.7094727 Z M14.6972656,20.9106445 C14.6972656,21.2275071 14.4403977,21.484375 14.1235352,21.484375 L10.8764648,21.484375 C10.5596023,21.484375 10.3027344,21.2275071 10.3027344,20.9106445 L10.3027344,18.347168 C10.3027344,18.0303054 10.5596023,17.7734375 10.8764648,17.7734375 L14.1235352,17.7734375 C14.4403977,17.7734375 14.6972656,18.0303054 14.6972656,18.347168 L14.6972656,20.9106445 Z M14.6972656,14.7094727 C14.6972656,15.0263352 14.4403977,15.2832031 14.1235352,15.2832031 L10.8764648,15.2832031 C10.5596023,15.2832031 10.3027344,15.0263352 10.3027344,14.7094727 L10.3027344,12.1459961 C10.3027344,11.8291335 10.5596023,11.5722656 10.8764648,11.5722656 L14.1235352,11.5722656 C14.4403977,11.5722656 14.6972656,11.8291335 14.6972656,12.1459961 L14.6972656,14.7094727 Z M21.7285156,20.9106445 C21.7285156,21.2275071 21.4716477,21.484375 21.1547852,21.484375 L17.9077148,21.484375 C17.5908523,21.484375 17.3339844,21.2275071 17.3339844,20.9106445 L17.3339844,18.347168 C17.3339844,18.0303054 17.5908523,17.7734375 17.9077148,17.7734375 L21.1547852,17.7734375 C21.4716477,17.7734375 21.7285156,18.0303054 21.7285156,18.347168 L21.7285156,20.9106445 Z M21.7285156,14.7094727 C21.7285156,15.0263352 21.4716477,15.2832031 21.1547852,15.2832031 L17.9077148,15.2832031 C17.5908523,15.2832031 17.3339844,15.0263352 17.3339844,14.7094727 L17.3339844,12.1459961 C17.3339844,11.8291335 17.5908523,11.5722656 17.9077148,11.5722656 L21.1547852,11.5722656 C21.4716477,11.5722656 21.7285156,11.8291335 21.7285156,12.1459961 L21.7285156,14.7094727 Z" id="Shape"></path><path d="M6.9375,6.54296875 C7.55761719,6.54296875 8.05664062,6.00585938 8.05664062,5.359375 L8.05664062,1.16943359 C8.05664062,0.524414062 7.55761719,0 6.9375,0 L6.3125,0 C5.69238281,0 5.17578125,0.524414062 5.17578125,1.16943359 L5.17578125,5.35986328 C5.17578125,6.00585938 5.69238281,6.54296875 6.3125,6.54296875 L6.9375,6.54296875 Z" id="Path"></path><path d="M19.0625,6.54296875 C19.6826172,6.54296875 20.1660156,6.00585938 20.1660156,5.359375 L20.1660156,1.16894531 C20.1660156,0.524414062 19.6826172,0 19.0625,0 L18.4375,0 C17.8173828,0 17.3339844,0.524414062 17.3339844,1.16894531 L17.3339844,5.359375 C17.3339844,6.00585938 17.8173828,6.54296875 18.4375,6.54296875 L19.0625,6.54296875 L19.0625,6.54296875 Z" id="Path"></path></g></g></g></g></svg> 