<?xml version="1.0" encoding="UTF-8"?> <svg xmlns="http://www.w3.org/2000/svg" xmlns:xlink="http://www.w3.org/1999/xlink" width="52px" height="60px" viewBox="0 0 52 60" version="1.1"><title>ipad</title><g id="Repair" stroke="none" stroke-width="1" fill="none" fill-rule="evenodd"><g id="Models_repair@2x" transform="translate(-524.000000, -643.000000)" fill="#878787" fill-rule="nonzero" stroke="#878787" stroke-width="0.1"><g id="Select-your-device" transform="translate(0.000000, 450.000000)"><g id="Subnav" transform="translate(340.000000, 194.000000)"><g id="iPad" transform="translate(169.000000, 0.000000)"><g id="Feature" transform="translate(0.314286, 0.371429)"><g id="ipad" transform="translate(16.000000, 0.000000)"><path d="M40.8,4.8 L40.8,3.6 C40.8,1.6117749 39.1882251,0 37.2,0 L3.6,0 C1.6117749,0 0,1.6117749 0,3.6 L0,54 C0,55.9882251 1.6117749,57.6 3.6,57.6 L13.524,57.6 C12.6598526,57.0913751 12.0928233,56.1984156 12,55.2 L3.6,55.2 C2.9372583,55.2 2.4,54.6627417 2.4,54 L2.4,3.6 C2.4,2.9372583 2.9372583,2.4 3.6,2.4 L37.2,2.4 C37.8627417,2.4 38.4,2.9372583 38.4,3.6 L38.4,4.8 L40.8,4.8 Z" id="Path"></path><path d="M16.6,6 C14.6117749,6 13,7.6117749 13,9.6 L13,54 C13,55.9882251 14.6117749,57.6 16.6,57.6 L45.4,57.6 C47.3882251,57.6 49,55.9882251 49,54 L49,9.6 C49,7.6117749 47.3882251,6 45.4,6 M46.6,54 C46.6,54.6627417 46.0627417,55.2 45.4,55.2 L16.6,55.2 C15.9372583,55.2 15.4,54.6627417 15.4,54 L15.4,9.6 C15.4,8.9372583 15.9372583,8.4 16.6,8.4 L45.4,8.4 C46.0627417,8.4 46.6,8.9372583 46.6,9.6 L46.6,54 Z" id="Shape"></path></g></g></g></g></g></g></g></svg> 