<?xml version="1.0" encoding="UTF-8"?> <svg xmlns="http://www.w3.org/2000/svg" xmlns:xlink="http://www.w3.org/1999/xlink" width="19px" height="30px" viewBox="0 0 19 30" version="1.1"><title>Walk_icn</title><g id="Landing-Page" stroke="none" stroke-width="1" fill="none" fill-rule="evenodd"><g id="Landing_page_f@2x" transform="translate(-559.000000, -1676.000000)" fill="#FFFFFF" fill-rule="nonzero"><g id="Features" transform="translate(-3.000000, 1270.000000)"><g id="#4" transform="translate(560.000000, 406.000000)"><g id="Walk_icn" transform="translate(2.000000, 0.000000)"><path d="M5.10309278,20.4123711 L7.60824742,22.9175258 L5.44329897,28.7628866 C5.19587629,29.4123711 4.57731959,29.814433 3.92783505,29.814433 C3.74226804,29.814433 3.55670103,29.7835052 3.37113402,29.7216495 C2.53608247,29.4123711 2.10309278,28.4845361 2.41237113,27.6494845 L5.10309278,20.4123711 Z" id="Path"></path><path d="M0.432989691,14.0103093 L1.91752577,11.1649485 C2.31958763,10.4226804 2.90721649,9.80412371 3.6185567,9.37113402 C7.05154639,7.32989691 7.48453608,7.36082474 7.91752577,7.39175258 L10.2371134,7.54639175 C10.9484536,7.57731959 11.443299,7.7628866 13.8247423,11.257732 C13.9175258,11.3814433 14.0412371,11.4742268 14.2268041,11.5051546 L17.0721649,11.9381443 C17.8453608,12.0618557 18.371134,12.7731959 18.2474227,13.5463918 C18.1237113,14.3195876 17.4123711,14.8453608 16.6391753,14.7216495 L13.7938144,14.2886598 C12.8659794,14.1340206 12.0309278,13.6391753 11.5051546,12.8659794 C11.3814433,12.6804124 11.2886598,12.5257732 11.1649485,12.371134 L9.34020619,18.1546392 L11.8762887,20.6907216 C12.2474227,21.0618557 12.556701,21.556701 12.742268,22.0515464 L14.6907216,27.742268 C15,28.5773196 14.5360825,29.5051546 13.7010309,29.7835052 C13.5154639,29.8453608 13.3608247,29.8762887 13.1752577,29.8762887 C12.4948454,29.8762887 11.8762887,29.443299 11.628866,28.7938144 L9.68041237,23.1030928 C9.64948454,23.0412371 9.6185567,23.0103093 9.58762887,22.9484536 L5.07216495,18.4020619 C4.42268041,17.7525773 4.17525773,16.8556701 4.36082474,15.9896907 L5.35051546,11.5979381 C5.25773196,11.6597938 5.16494845,11.7216495 5.04123711,11.7835052 C4.7628866,11.9381443 4.54639175,12.185567 4.39175258,12.4639175 L2.90721649,15.3092784 C2.65979381,15.7731959 2.16494845,16.0515464 1.67010309,16.0515464 C1.45360825,16.0515464 1.2371134,15.9896907 1.02061856,15.8969072 C0.340206186,15.5257732 0.0927835052,14.6907216 0.432989691,14.0103093 Z" id="Path"></path><circle id="Oval" transform="translate(9.553528, 3.572545) rotate(-83.788255) translate(-9.553528, -3.572545) " cx="9.55352784" cy="3.57254536" r="3.12362083"></circle></g></g></g></g></g></svg> 