<svg class="web-icon" width="56" viewBox="0 0 56 49" preserveAspectRatio="xMidYMid meet" xmlns="http://www.w3.org/2000/svg" xmlns:xlink="http://www.w3.org/1999/xlink"><g class="icon-walkin"><g stroke="none" stroke-width="1" fill="none" fill-rule="evenodd"><g transform="translate(-253.000000, -3217.000000)" fill="#878787" fill-rule="nonzero"><g transform="translate(0.000000, 3165.000000)"><g transform="translate(121.142857, 53.428571)"><g transform="translate(0.000000, 0.714286)"><g transform="translate(96.685714, 0.000000)"><g transform="translate(36.000000, 0.000000)"><path d="M46.4406034,24.8507383 C46.7789044,24.2585351 46.9467103,23.5733018 46.9225075,22.8731837 C46.9230453,22.8508565 46.9235832,22.8290608 46.9246588,22.8072652 C47.5845878,23.4606025 48.4833174,23.8369758 49.4428229,23.8369758 C50.1307195,23.8369758 50.8008674,23.6408151 51.3806583,23.268163 C52.1761228,22.7562315 52.7241811,21.9689309 52.9215682,21.0503249 C53.1184174,20.1311872 52.9420061,19.1907856 52.4229911,18.4029533 L49.0706381,13.336267 C48.7866589,12.9046072 48.4074821,12.5431187 47.9427888,12.26456 C47.7125936,12.0923213 47.4818605,11.9572947 47.2398327,11.8536326 L42.875266,9.99303012 C42.4729621,9.5975192 42.0125716,9.27324276 41.5123809,9.02976964 C42.2416912,8.08405198 42.6768032,6.9033668 42.6768032,5.6243355 C42.6768032,2.52297696 40.1247553,0 36.987538,0 C33.8503208,0 31.297735,2.52297696 31.297735,5.6243355 C31.297735,7.99633786 32.7907771,10.0297106 34.8969563,10.8552865 C34.6414825,11.248671 34.4387171,11.678736 34.2994167,12.1343178 L32.2330377,13.8896633 L27.1187228,14.5275842 C26.1807309,14.6413467 25.3384744,15.1123449 24.7538429,15.8528647 C24.1692115,16.5933845 23.9110486,17.5151802 24.0272219,18.4481394 C24.2455847,20.2066745 25.7628297,21.5340815 27.5559862,21.5340815 C27.7012029,21.5340815 27.8474952,21.5245127 27.9927118,21.5069699 L34.0729863,20.7489073 C34.5925392,20.6856468 35.0857379,20.5070289 35.5402122,20.2183698 C35.5923826,20.1923213 35.6418638,20.1652097 35.6908072,20.1386297 L36.6486992,23.545127 L36.7793942,24.015062 C36.7858482,24.0389841 36.7939158,24.0660957 36.8025213,24.0926757 L36.8165051,24.1426462 L36.8224213,24.1644418 L36.8229592,24.165505 L36.8584566,24.292026 L36.8595322,24.292026 L36.8708269,24.3313644 L36.8858864,24.3542233 L37.222036,25.4121087 L33.6561607,31.5090372 C33.2812867,32.1496161 33.1075646,32.8741878 33.1511295,33.6173656 C33.1446755,33.6790313 33.1398349,33.7518606 33.1398349,33.8326639 L33.1376836,41.1703485 C33.1188592,43.2542233 34.8297263,44.976078 36.9531163,44.994684 L36.9601082,44.994684 L36.9864623,44.994684 C39.0931793,44.994684 40.8196438,43.3015357 40.8352411,41.2208506 L40.8373925,36.4290018 C40.9557171,36.620378 41.0928662,36.8037803 41.2477639,36.9765505 L45.2933919,43.2287064 C45.9947345,44.3333727 47.2134786,45 48.5489338,45 C49.27179,45 49.978511,44.7985233 50.5927236,44.4178972 C52.3901829,43.3015357 52.9344763,40.9497342 51.8071649,39.1731246 L47.5964203,32.666332 L45.5816738,26.3216775 L45.9915075,25.6215594 C46.1625404,25.3791494 46.3136733,25.1213231 46.4406034,24.8507383 Z M32.9112532,5.6227407 C32.9112532,3.39639693 34.7350666,1.59320732 36.987538,1.59320732 C39.2400094,1.59320732 41.063285,3.39692853 41.063285,5.6227407 C41.063285,7.84802126 39.2394716,9.65174259 36.987538,9.65174259 C34.7350666,9.65227407 32.9112532,7.84802126 32.9112532,5.6227407 Z M35.1760949,18.5581807 C35.0405594,18.6730065 34.8899643,18.7591258 34.7350666,18.8308919 C34.4849713,19.0020673 34.194538,19.1259303 33.8712965,19.1652688 L27.7958626,19.9233314 C27.7157245,19.9329002 27.6350486,19.9376846 27.5565241,19.9376846 C26.5884131,19.9376846 25.7504594,19.2237448 25.6294455,18.2503839 C25.4976748,17.1978145 26.2549527,16.2377437 27.3214883,16.1085647 L32.9171694,15.4105729 L34.2009921,14.3197283 C34.1923866,14.5940343 34.2235813,14.880567 34.3037194,15.181453 L34.3037194,15.2075015 L35.2331059,18.5103367 L35.1760949,18.5581807 Z M39.2238743,34.0059657 L39.2217229,41.2096869 C39.211504,42.4243946 38.2111227,43.4004135 36.9859245,43.4004135 C36.9794704,43.4004135 36.9735542,43.4004135 36.9671001,43.4004135 C35.7322208,43.3892499 34.7399071,42.3914353 34.7511063,41.1714117 L34.7528153,33.8316007 C34.7528153,33.7704666 34.7667991,33.7135854 34.7727154,33.6540461 C34.7210828,33.2011223 34.8049857,32.7306556 35.0529297,32.3064383 L38.9732411,25.6034849 L38.3568771,23.6631424 C38.3563393,23.6620791 38.3563393,23.6599527 38.3552636,23.6588895 C38.3493474,23.6392203 38.3428933,23.6195511 38.3364392,23.5988187 L38.3375149,23.5988187 L35.8075184,14.5041937 C35.6719828,13.9981099 35.6596125,13.4898996 35.745129,13.0056113 C35.8317211,12.5181335 36.0215784,12.0572357 36.2964144,11.6510927 C36.2980279,11.6489663 36.2991036,11.6468399 36.3007171,11.6447135 C36.481969,11.3783816 36.7014075,11.1370348 36.9520406,10.9270526 C36.9601082,10.9206734 36.967638,10.9137626 36.9757055,10.9073833 C37.0961816,10.8085056 37.2231117,10.7181335 37.3570337,10.6352038 C37.7324456,10.4480803 38.0406276,10.3226226 38.2046686,10.2604253 C38.2471579,10.2476669 38.286958,10.2285292 38.330523,10.2173656 C38.6327888,10.1386887 38.936668,10.1004135 39.2357067,10.1004135 C40.2780395,10.1004135 41.2612099,10.5591849 41.9270551,11.3268163 L46.5955011,13.3160662 C46.76008,13.386769 46.9031453,13.4819256 47.0354538,13.5882457 C47.3022221,13.7354991 47.5415606,13.9391022 47.7195855,14.2102185 L51.0697871,19.2742469 C51.6560321,20.1636149 51.3989448,21.3538689 50.4991395,21.932782 C50.1721332,22.1427643 49.8047888,22.2432369 49.4412094,22.2432369 C48.8054832,22.2432369 48.1815895,21.9349084 47.8094047,21.3682221 L44.720593,16.7028943 L43.6492169,16.2462493 L45.1933538,21.7993503 C45.2912406,22.1603071 45.3245866,22.5233904 45.3068379,22.8774365 C45.3310407,23.2936799 45.2385323,23.7210868 45.0104884,24.1086237 L45.0008073,24.1251034 C44.9868235,24.157531 44.9674612,24.186769 44.9524017,24.2186651 L44.6867091,24.6726521 C44.6678847,24.7018901 44.6506738,24.7321914 44.6302359,24.7603662 L43.8272417,26.1334908 L43.8293931,26.1409333 L40.7927518,31.3330774 L40.7911383,31.3261666 L39.2238743,34.0059657 Z M46.1216646,33.3473125 L50.4399772,40.0215594 C51.0966791,41.0555227 50.7804295,42.4190786 49.7348697,43.0676314 C49.3648362,43.2972829 48.9544647,43.4062611 48.548396,43.4062611 C47.8040263,43.4062611 47.0774052,43.0399882 46.6525121,42.3707029 L42.5310488,36.0021264 C42.2981643,35.7634377 42.1099205,35.4747785 42.0028905,35.1361488 L41.4456888,33.3786769 L44.4823301,28.1860012 L46.1216646,33.3473125 Z" stroke="#878787" transform="translate(38.500000, 22.500000) scale(-1, 1) translate(-38.500000, -22.500000) "></path><path d="M18.88,28 L7.4,28 C6.62680135,28 6,28.6268014 6,29.4 C6,30.1731986 6.62680135,30.8 7.4,30.8 L18.88,30.8 C19.6531986,30.8 20.28,30.1731986 20.28,29.4 C20.28,28.6268014 19.6531986,28 18.88,28 Z"></path><path d="M18.8405797,35 L1.15942029,35 C0.519090145,35 0,35.6268014 0,36.4 C0,37.1731986 0.519090145,37.8 1.15942029,37.8 L18.8405797,37.8 C19.4809099,37.8 20,37.1731986 20,36.4 C20,35.6268014 19.4809099,35 18.8405797,35 Z"></path><path d="M18.85,42.82 L12.41,42.82 C11.6368014,42.82 11.01,43.4468014 11.01,44.22 C11.01,44.9931986 11.6368014,45.62 12.41,45.62 L18.85,45.62 C19.6231986,45.62 20.25,44.9931986 20.25,44.22 C20.25,43.4468014 19.6231986,42.82 18.85,42.82 Z"></path></g></g></g></g></g></g></g></g></svg>