<svg class="web-icon" width="56" viewBox="0 0 40 39" preserveAspectRatio="xMidYMid meet" xmlns="http://www.w3.org/2000/svg" xmlns:xlink="http://www.w3.org/1999/xlink"><g class="icon-biker"><g stroke="none" stroke-width="1" fill="none" fill-rule="evenodd"><g transform="translate(-610.000000, -329.000000)" fill="#878787" fill-rule="nonzero" stroke="#878787" stroke-width="0.6"><g transform="translate(1.000000, 6.000000)"><g transform="translate(580.000000, 306.000000)"><g transform="translate(30.000000, 18.000000)"><path d="M36.2201274,10.9319779 L29.7336642,10.9319779 C28.6143244,10.9319779 27.7036421,11.8580229 27.7036421,12.9963688 L27.7036421,20.5843797 L25.2774472,20.5843797 C25.4122939,20.0862015 25.4622731,19.4985775 25.4294766,18.8147499 L25.4294766,18.814674 C25.3768079,15.9248456 24.8608791,13.4893078 23.8958847,11.5757143 C23.1465702,10.0899876 22.272121,9.1992502 21.5217607,8.66675155 C22.4024853,7.74640132 22.9116904,6.43713649 22.9116904,4.92711215 C22.9116904,2.21025285 20.7793193,0 18.1583624,0 C15.5374054,0 13.4050343,2.21025285 13.4050343,4.92711215 C13.4050343,5.24169106 13.6559015,5.49658882 13.9653393,5.49658882 L14.3460478,5.49658882 C14.31101,5.71147135 14.2923332,5.93045411 14.2923332,6.15285374 C14.2923332,8.06751023 15.6384097,9.66773968 17.4180875,10.0263581 C17.2315434,10.7303831 17.1388316,11.5605283 17.1392051,12.5035816 L15.7417299,13.725223 L12.3414262,14.0047221 L8.41906771,12.6868772 C8.05957608,12.5653888 7.65212235,12.428107 7.29860731,12.6871809 C6.95024707,12.9426861 6.95024707,13.3899911 6.95024707,13.536916 L6.95024707,16.5008523 C6.95024707,16.8154312 7.20111425,17.0703289 7.51055198,17.0703289 L8.17761365,17.0703289 L7.15449688,20.6636508 C7.06850876,20.9657012 7.23973794,21.281571 7.53699837,21.3689666 C7.83440822,21.4568179 8.14496655,21.2823303 8.23102939,20.9802798 L9.34431789,17.0703289 L10.9372274,17.0703289 C8.95598923,23.2109579 10.0864604,27.3098232 11.824078,31.4579672 L10.8168739,31.4579672 L6.62183368,26.6906122 L7.50890842,23.5759545 C7.59497125,23.2738281 7.42374207,22.9580343 7.12648164,22.8706387 C6.82922121,22.783243 6.51851346,22.957275 6.43245062,23.2593255 L5.58399957,26.2385996 C2.9598302,26.1941045 0.612526159,28.0329826 0.0143446365,30.6786194 C-0.0549090505,30.9850738 0.133278692,31.290617 0.434722734,31.3610802 L1.23013159,31.5471093 C1.02692767,33.6922899 2.41685739,35.71621 4.53660293,36.2121103 C4.85851677,36.287509 5.18319479,36.3247148 5.50563159,36.3247148 C6.30081632,36.3247148 7.08203078,36.098139 7.7729988,35.6579715 C8.58394677,35.1414942 9.18817959,34.3821919 9.51517353,33.4848486 L10.1427897,33.6316217 C10.3297822,33.6755853 10.5071373,33.6978328 10.6843431,33.6008699 C10.8492222,33.5106648 10.9588178,33.3477945 10.9999068,33.1639674 C11.0393523,32.9775587 11.0693847,32.7881128 11.090228,32.5969205 L22.808669,32.5969205 C23.1834009,34.9649564 25.1657597,36.75 27.5333094,36.75 C29.9008592,36.75 31.8832927,34.9649564 32.2580246,32.5969205 L32.6856493,32.5969205 C32.6856493,32.5969205 32.7705168,32.5979076 32.789866,32.5979076 C32.9501132,32.5979076 33.1815565,32.5798362 33.3716119,32.3833288 C33.4667143,32.2849992 33.5783271,32.1090689 33.5697357,31.8295697 C33.5539725,31.2947931 33.4750068,30.778088 33.3402348,30.2869713 C33.7865364,27.533134 33.3571187,25.8559113 32.7205376,24.5433055 C33.1229859,24.2751959 33.3898405,23.8132364 33.3898405,23.2884067 L33.3898405,21.7232571 L36.219978,21.7232571 C37.3393178,21.7232571 38.25,20.7972121 38.25,19.6588662 L38.25,12.9962928 C38.25,11.8580229 37.3395419,10.9319779 36.2201274,10.9319779 Z M7.17795498,34.6930503 C6.46068999,35.1499224 5.61201482,35.2951769 4.78814248,35.1023901 L4.78806777,35.1023901 C3.27165856,34.7476441 2.25997201,33.3343549 2.33370814,31.8061832 L8.41137286,33.2279007 C8.15990802,33.8296477 7.73444982,34.338608 7.17795498,34.6930503 L7.17795498,34.6930503 Z M9.98157134,32.4253182 L1.26584169,30.3868955 C1.9384317,28.5149118 3.74844068,27.2757305 5.72691468,27.3823366 L9.99651281,32.2343537 C9.99277744,32.2983629 9.98784676,32.3619924 9.98157134,32.4253182 Z M18.4447903,22.5016178 C18.2821524,22.9376091 18.2821524,23.4751192 18.2821524,24.2191594 L18.2821524,26.3681366 L16.2304652,26.3681366 L16.2304652,23.4199179 C16.2304652,20.086733 18.0203033,19.4927308 18.8235564,19.3947049 L24.316711,19.3947049 C24.2945976,20.1511977 24.1266556,20.6889356 23.8078047,21.0302419 C23.4362105,21.4279644 22.8003765,21.6217384 21.8638455,21.6226495 L19.8526497,21.6247756 C19.1354594,21.6248515 18.661815,21.9197645 18.4447903,22.5016178 L18.4447903,22.5016178 Z M18.2821524,27.507014 L18.2821524,28.8667724 C18.2770723,28.8667724 18.2718428,28.8667724 18.2664639,28.8667724 L14.2865807,28.8667724 C14.3313304,28.445056 14.4605741,28.1187079 14.6728176,27.8928914 C14.9885307,27.5571279 15.4331887,27.507014 15.6701603,27.507014 L18.2821524,27.507014 Z M24.2919829,18.2558275 L19.1964206,18.2558275 C18.9917973,17.6013849 18.809362,16.8847555 18.6593497,16.1482323 L20.2085554,15.1262115 C21.0542423,14.5680485 21.4941937,13.7793612 21.4156016,12.9622761 C21.3459744,12.2379777 20.8614974,11.5909763 20.1813619,11.3140588 C19.5602453,11.0612111 18.8916895,11.1406341 18.3008292,11.5246133 C18.3495384,10.9798899 18.4402331,10.4936327 18.5714192,10.080876 C18.8102585,10.055819 19.0474542,10.0083627 19.2803916,9.93873464 C19.754559,9.82681349 20.1927175,9.6484534 20.5882927,9.41193076 C21.66744,10.0672086 24.0408916,12.1926474 24.2919829,18.2558275 L24.2919829,18.2558275 Z M14.5666585,4.35771141 C14.8308983,2.53811955 16.3408827,1.13902927 18.1583624,1.13902927 C20.1614151,1.13902927 21.7910806,2.83842359 21.7910806,4.92718808 C21.7910806,6.62605088 20.9895457,7.99530059 19.6971091,8.59788284 L19.6971091,5.60144846 C19.6971091,5.08261725 19.5017494,4.44617012 18.5713445,4.36006525 C18.5544606,4.35847071 18.537502,4.35771141 18.5205435,4.35771141 L14.5666585,4.35771141 Z M15.4130177,6.15292967 C15.4130177,5.92817621 15.4381941,5.70866193 15.4877251,5.49666475 L18.4930512,5.49666475 C18.5276407,5.50046126 18.5528917,5.5045615 18.5709709,5.50828208 C18.5738845,5.52939068 18.5764246,5.55976277 18.5764246,5.60144846 L18.5764246,8.93296291 C18.4429226,8.95293256 18.3085988,8.96303128 18.1743497,8.96310721 C18.1730797,8.96310721 18.1718097,8.96310721 18.1706144,8.96310721 C16.6498721,8.96166454 15.4130177,7.70160249 15.4130177,6.15292967 Z M14.6866384,14.9547611 L16.0137393,14.8456494 C16.132001,14.8360062 16.2441367,14.788398 16.334159,14.7098102 L18.7292757,12.6160343 L18.7296493,12.6156546 C18.961242,12.412845 19.2084485,12.3088206 19.4491555,12.3088206 C19.5562858,12.3088206 19.6621461,12.3294736 19.7647192,12.3712353 C20.0607843,12.4917365 20.2710107,12.7672114 20.3004454,13.0729064 C20.3374255,13.4576449 20.0880525,13.8476225 19.5984954,14.1707815 L16.9295764,15.9314515 L14.6867879,15.9314515 L14.6867879,14.9547611 L14.6866384,14.9547611 Z M12.3187152,15.1494462 L13.5660286,15.0469404 L13.5660286,15.9316034 L12.1166319,15.9316034 C11.928743,15.9316034 11.8829474,15.7729092 11.8775685,15.6398036 C11.8745055,15.5643289 11.8815279,15.1858927 12.3187152,15.1494462 Z M10.9925855,14.7562795 C10.8238217,15.037525 10.7450055,15.3665307 10.7579298,15.6864247 C10.7612917,15.7692646 10.771676,15.8490672 10.7861692,15.9268198 C10.7861692,15.9284143 10.7852727,15.9300089 10.7855715,15.9315275 L8.0710063,15.9315275 L8.0710063,13.7695662 L10.994752,14.7518755 C10.9938555,14.7533941 10.9934073,14.7548368 10.9925855,14.7562795 Z M12.1197696,17.0704808 L17.0953519,17.0704808 C17.2036028,17.0704808 17.3096125,17.0385901 17.4003819,16.9786812 L17.6540133,16.811331 C17.7760103,17.3593953 17.9149659,17.8927292 18.066323,18.3964503 C16.9235998,18.7392752 15.1097807,19.8471731 15.1097807,23.419842 L15.1097807,26.4252361 C14.7166708,26.505874 14.2516177,26.6922068 13.8626167,27.1059506 C13.4525482,27.5420938 13.2183408,28.1330587 13.1621608,28.8666965 L12.0318391,28.8666965 C10.8928512,25.5304744 10.4596982,21.9802809 12.1197696,17.0704808 L12.1197696,17.0704808 Z M13.0433015,31.4560689 C12.8362128,30.9720138 12.6365948,30.4897809 12.4486312,30.0057258 L18.2663892,30.0057258 C19.0204102,30.0057258 19.4026875,29.6568264 19.4026875,28.9688226 L19.4026875,26.9375373 L19.4026875,24.7885602 L23.8252863,24.7885602 C24.1347987,24.7885602 24.3855912,24.5336624 24.3855912,24.2190835 C24.3855912,23.9045046 24.1347987,23.6496068 23.8252863,23.6496068 L19.4067217,23.6496068 C19.4138936,23.3261441 19.4342887,23.0616032 19.4926351,22.9053388 C19.5209492,22.8293326 19.5454532,22.7637289 19.8531727,22.7637289 L21.8648914,22.7616029 C23.1248304,22.760388 24.0261742,22.4505927 24.620471,21.8144493 C24.6479633,21.7849883 24.6739614,21.7540847 24.7000343,21.723333 L28.2640218,21.723333 L32.2694548,21.723333 L32.2694548,23.2884827 C32.2694548,23.4842308 32.1071158,23.6496068 31.9149686,23.6496068 L26.3369464,23.6496068 C26.027434,23.6496068 25.7766415,23.9045046 25.7766415,24.2190835 C25.7766415,24.5336624 26.027434,24.7885602 26.3369464,24.7885602 L31.5857334,24.7885602 C32.0285984,25.6240204 32.4269378,26.6635811 32.4032556,28.3060277 C31.2947484,26.7410299 29.5002038,25.7347267 27.4635328,25.7347267 C25.8278907,25.7347267 24.2931035,26.3868154 23.141789,27.5709472 C22.1201663,28.6215937 21.5065951,29.9852246 21.3803397,31.4579672 L13.0433015,31.4560689 Z M27.5333842,35.6111985 C25.7817963,35.6111985 24.3045337,34.3285093 23.9471339,32.5970724 L31.1196344,32.5970724 C30.7621599,34.3283574 29.2848973,35.6111985 27.5333842,35.6111985 L27.5333842,35.6111985 Z M31.7561408,31.4581191 L23.3107769,31.4581191 L22.5058055,31.4581191 C22.7808779,28.8830974 24.8992787,26.87368 27.4635328,26.87368 C29.7148379,26.87368 31.6054561,28.3824895 32.2315782,30.4946405 C32.2335953,30.5013223 32.2356124,30.5080042 32.2378536,30.5146101 C32.3263818,30.8176476 32.3889118,31.1330618 32.4227542,31.4581191 L31.7561408,31.4581191 Z M37.1295396,19.6589421 C37.1295396,20.1692691 36.7215629,20.5843797 36.2201274,20.5843797 L28.824252,20.5843797 L28.824252,17.6435262 L37.1295396,17.6435262 L37.1295396,19.6589421 Z M37.1295396,16.5045729 L28.824252,16.5045729 L28.824252,15.2934099 L37.1295396,15.2934099 L37.1295396,16.5045729 Z M37.1295396,14.1544565 L28.824252,14.1544565 L28.824252,12.9963688 C28.824252,12.4860418 29.2322286,12.0709312 29.7336642,12.0709312 L36.2201274,12.0709312 C36.7215629,12.0709312 37.1295396,12.4861177 37.1295396,12.9963688 L37.1295396,14.1544565 Z" transform="translate(19.125000, 18.375000) scale(-1, 1) translate(-19.125000, -18.375000) "></path></g></g></g></g></g></g></svg>